HIERARCHY
ROOT Hips
{
    OFFSET   0.000000   0.000000   0.000000
    CHANNELS 6 Xposition Yposition Zposition Zrotation Xrotation Yrotation
    JOINT Chest
    {
        OFFSET   0.000000   8.007230   0.000000
        CHANNELS 3 Zrotation Xrotation Yrotation
        JOINT Chest2
        {
            OFFSET   0.000000  22.077100   0.000000
            CHANNELS 3 Zrotation Xrotation Yrotation
            JOINT Neck
            {
                OFFSET   0.000000  23.255100   0.000000
                CHANNELS 3 Zrotation Xrotation Yrotation
                JOINT Head
                {
                    OFFSET   0.000000  14.370100   1.956600
                    CHANNELS 3 Zrotation Xrotation Yrotation
                    End Site
                    {
                        OFFSET   0.000000  19.566000   0.000000
                    }
                }
            }
            JOINT LeftCollar
            {
                OFFSET   3.911900  19.017000  -0.467063
                CHANNELS 3 Zrotation Xrotation Yrotation
                JOINT LeftShoulder
                {
                    OFFSET  10.383700   0.000000   0.000000
                    CHANNELS 3 Zrotation Xrotation Yrotation
                    JOINT LeftElbow
                    {
                        OFFSET  26.662100   0.001193   0.000980
                        CHANNELS 3 Zrotation Xrotation Yrotation
                        JOINT LeftWrist
                        {
                            OFFSET  28.869000  -0.000059  -0.000082
                            CHANNELS 3 Zrotation Xrotation Yrotation
                            JOINT LeftFinger0
                            {
                                OFFSET   2.044650  -2.323450   3.252850
                                CHANNELS 3 Zrotation Xrotation Yrotation
                                JOINT LeftFinger01
                                {
                                    OFFSET   3.088130   0.000000   0.000000
                                    CHANNELS 3 Zrotation Xrotation Yrotation
                                    JOINT LeftFinger02
                                    {
                                        OFFSET   2.639460   0.000000   0.000000
                                        CHANNELS 3 Zrotation Xrotation Yrotation
                                        End Site
                                        {
                                            OFFSET   2.582190   0.000000   0.000000
                                        }
                                    }
                                }
                            }
                            JOINT LeftFinger1
                            {
                                OFFSET   8.364480   0.000000   3.252850
                                CHANNELS 3 Zrotation Xrotation Yrotation
                                JOINT LeftFinger11
                                {
                                    OFFSET   4.646930   0.000000   0.000000
                                    CHANNELS 3 Zrotation Xrotation Yrotation
                                    JOINT LeftFinger12
                                    {
                                        OFFSET   2.323470   0.000000   0.000000
                                        CHANNELS 3 Zrotation Xrotation Yrotation
                                        End Site
                                        {
                                            OFFSET   2.273050   0.000000   0.000000
                                        }
                                    }
                                }
                            }
                            JOINT LeftFinger2
                            {
                                OFFSET   8.364490   0.000016   1.078090
                                CHANNELS 3 Zrotation Xrotation Yrotation
                                JOINT LeftFinger21
                                {
                                    OFFSET   5.111610   0.000000   0.000000
                                    CHANNELS 3 Zrotation Xrotation Yrotation
                                    JOINT LeftFinger22
                                    {
                                        OFFSET   2.788150   0.000016   0.000000
                                        CHANNELS 3 Zrotation Xrotation Yrotation
                                        End Site
                                        {
                                            OFFSET   2.727660   0.000000   0.000000
                                        }
                                    }
                                }
                            }
                            JOINT LeftFinger3
                            {
                                OFFSET   7.899780   0.000015  -1.078090
                                CHANNELS 3 Zrotation Xrotation Yrotation
                                JOINT LeftFinger31
                                {
                                    OFFSET   4.646930   0.000000   0.000000
                                    CHANNELS 3 Zrotation Xrotation Yrotation
                                    JOINT LeftFinger32
                                    {
                                        OFFSET   2.323470   0.000000   0.000000
                                        CHANNELS 3 Zrotation Xrotation Yrotation
                                        End Site
                                        {
                                            OFFSET   2.273050   0.000000   0.000000
                                        }
                                    }
                                }
                            }
                            JOINT LeftFinger4
                            {
                                OFFSET   7.435090   0.000000  -3.252850
                                CHANNELS 3 Zrotation Xrotation Yrotation
                                JOINT LeftFinger41
                                {
                                    OFFSET   3.717550   0.000000   0.000000
                                    CHANNELS 3 Zrotation Xrotation Yrotation
                                    JOINT LeftFinger42
                                    {
                                        OFFSET   1.858770   0.000000   0.000000
                                        CHANNELS 3 Zrotation Xrotation Yrotation
                                        End Site
                                        {
                                            OFFSET   1.818440   0.000000   0.000000
                                        }
                                    }
                                }
                            }
                        }
                    }
                }
            }
            JOINT RightCollar
            {
                OFFSET  -3.911910  19.017000  -0.467062
                CHANNELS 3 Zrotation Xrotation Yrotation
                JOINT RightShoulder
                {
                    OFFSET -10.383700   0.000014   0.000000
                    CHANNELS 3 Zrotation Xrotation Yrotation
                    JOINT RightElbow
                    {
                        OFFSET -26.662100   0.001225   0.001091
                        CHANNELS 3 Zrotation Xrotation Yrotation
                        JOINT RightWrist
                        {
                            OFFSET -28.869000  -0.000020  -0.000085
                            CHANNELS 3 Zrotation Xrotation Yrotation
                            JOINT RightFinger0
                            {
                                OFFSET  -2.044650  -2.323490   3.252850
                                CHANNELS 3 Zrotation Xrotation Yrotation
                                JOINT RightFinger01
                                {
                                    OFFSET  -3.088130   0.000000   0.000000
                                    CHANNELS 3 Zrotation Xrotation Yrotation
                                    JOINT RightFinger02
                                    {
                                        OFFSET  -2.639460   0.000000   0.000000
                                        CHANNELS 3 Zrotation Xrotation Yrotation
                                        End Site
                                        {
                                            OFFSET  -2.582190   0.000000   0.000000
                                        }
                                    }
                                }
                            }
                            JOINT RightFinger1
                            {
                                OFFSET  -8.364480   0.000000   3.252850
                                CHANNELS 3 Zrotation Xrotation Yrotation
                                JOINT RightFinger11
                                {
                                    OFFSET  -4.646930   0.000000   0.000000
                                    CHANNELS 3 Zrotation Xrotation Yrotation
                                    JOINT RightFinger12
                                    {
                                        OFFSET  -2.323470   0.000000   0.000000
                                        CHANNELS 3 Zrotation Xrotation Yrotation
                                        End Site
                                        {
                                            OFFSET  -2.273050   0.000000   0.000000
                                        }
                                    }
                                }
                            }
                            JOINT RightFinger2
                            {
                                OFFSET  -8.364480   0.000000   1.078090
                                CHANNELS 3 Zrotation Xrotation Yrotation
                                JOINT RightFinger21
                                {
                                    OFFSET  -5.111620   0.000000   0.000000
                                    CHANNELS 3 Zrotation Xrotation Yrotation
                                    JOINT RightFinger22
                                    {
                                        OFFSET  -2.788160   0.000000   0.000000
                                        CHANNELS 3 Zrotation Xrotation Yrotation
                                        End Site
                                        {
                                            OFFSET  -2.727660   0.000000   0.000000
                                        }
                                    }
                                }
                            }
                            JOINT RightFinger3
                            {
                                OFFSET  -7.899780   0.000000  -1.078090
                                CHANNELS 3 Zrotation Xrotation Yrotation
                                JOINT RightFinger31
                                {
                                    OFFSET  -4.646930   0.000000   0.000000
                                    CHANNELS 3 Zrotation Xrotation Yrotation
                                    JOINT RightFinger32
                                    {
                                        OFFSET  -2.323470   0.000000   0.000000
                                        CHANNELS 3 Zrotation Xrotation Yrotation
                                        End Site
                                        {
                                            OFFSET  -2.273050   0.000000   0.000000
                                        }
                                    }
                                }
                            }
                            JOINT RightFinger4
                            {
                                OFFSET  -7.435090   0.000000  -3.252850
                                CHANNELS 3 Zrotation Xrotation Yrotation
                                JOINT RightFinger41
                                {
                                    OFFSET  -3.717550   0.000000   0.000000
                                    CHANNELS 3 Zrotation Xrotation Yrotation
                                    JOINT RightFinger42
                                    {
                                        OFFSET  -1.858760   0.000000   0.000000
                                        CHANNELS 3 Zrotation Xrotation Yrotation
                                        End Site
                                        {
                                            OFFSET  -1.818440   0.000000   0.000000
                                        }
                                    }
                                }
                            }
                        }
                    }
                }
            }
        }
    }
    JOINT LeftHip
    {
        OFFSET   9.783030   0.000000   0.000000
        CHANNELS 3 Zrotation Xrotation Yrotation
        JOINT LeftKnee
        {
            OFFSET   0.000063 -41.789100   0.000608
            CHANNELS 3 Zrotation Xrotation Yrotation
            JOINT LeftAnkle
            {
                OFFSET   0.000048 -41.133200  -0.000184
                CHANNELS 3 Zrotation Xrotation Yrotation
                JOINT LeftToe
                {
                    OFFSET   0.000000  -6.358960  14.674500
                    CHANNELS 3 Zrotation Xrotation Yrotation
                    End Site
                    {
                        OFFSET   0.000000   0.000000   3.913200
                    }
                }
            }
        }
    }
    JOINT RightHip
    {
        OFFSET  -9.783030   0.000000   0.000000
        CHANNELS 3 Zrotation Xrotation Yrotation
        JOINT RightKnee
        {
            OFFSET   0.000071 -41.789100   0.001239
            CHANNELS 3 Zrotation Xrotation Yrotation
            JOINT RightAnkle
            {
                OFFSET   0.000037 -41.133200  -0.000166
                CHANNELS 3 Zrotation Xrotation Yrotation
                JOINT RightToe
                {
                    OFFSET   0.000000  -6.358960  14.674500
                    CHANNELS 3 Zrotation Xrotation Yrotation
                    End Site
                    {
                        OFFSET   0.000000   0.000000   3.913200
                    }
                }
            }
        }
    }
}
MOTION
Frames: 5
Frame Time:   0.016667
 -1.157040  89.432200   2.317820  -6.329810 -12.687000 -12.608300   1.656730   9.075080  -0.983578   3.541130  18.115700  -2.280060   4.212190  -0.534049   0.039377   6.921770  -1.065430  10.742900  -5.866630  -1.006000  -1.171640 -67.863500  22.312800  -7.143140  -3.127350  -9.397160 -22.013500  15.882900 -15.314100   9.885130  41.146100  37.262000 -62.491600 -33.851900  -0.001070  -0.000144 -11.925900  -0.002279   0.003758 -32.407700   5.092140  -7.957810 -26.805600  -0.001402   0.001265 -18.762000  -0.001484   0.000102 -28.750300  -0.842250   1.534450 -40.725700  -0.004687  -0.001268 -27.123300  -0.000271   0.001084 -28.627500  -0.838922   1.536270 -38.015300  -0.000234  -0.002211 -25.318200  -0.001856   0.000093 -32.429100  -0.938898   1.477310 -48.660600  -0.001934  -0.001888 -32.408100  -0.000169  -0.002494   8.844110  -5.574720   5.322390  38.409200 -23.598000  12.892900 -43.006900 -29.641800  47.144100 -56.686200 -25.212300   1.325330 -34.189200  26.581900  63.448700  32.980300  -0.009634  -0.006645  11.490100  -0.012723   0.004259  40.467300   9.253880  10.705900  33.829500  -0.016103  -0.014545  23.944900  -0.019421  -0.006483  28.090300   4.058920   7.638940  34.262900  -0.016996  -0.047100  22.819000  -0.023008  -0.024105  27.807000   3.961340   7.552250  31.668600  -0.005617  -0.052005  21.091300  -0.020620  -0.029020  37.583900  -0.433520  -0.517559  56.385500  -0.019473  -0.017615  37.552700  -0.017367   0.000432   4.640980  18.184700   5.600210   1.539990   0.109905  11.389500  -3.719640  -4.385500   3.936240   0.000000   0.000000   0.000000   4.195580  15.184500  -5.811540   0.202267   1.127560  -6.738100  -1.373260  -4.118420   8.951310  -0.000000   0.000000   0.000000
 -1.103300  89.434700   2.306240  -6.290870 -12.686500 -12.448300   1.630970   9.059890  -0.919342   3.477510  18.088000  -2.144230   4.154080  -0.576288   0.041921   6.826480  -1.150470  10.598000  -5.911960  -1.090660  -1.130460 -67.961700  22.239200  -7.067880  -3.036960  -9.197430 -22.162800  15.923800 -15.436200   9.866840  41.161500  37.294500 -62.486400 -33.868000  -0.001055   0.000071 -11.934000  -0.002367   0.003753 -32.408600   5.044500  -7.885780 -26.800900  -0.001476   0.001071 -18.759000  -0.001488   0.000000 -28.747900  -0.886989   1.616020 -40.734400  -0.004402  -0.001205 -27.129100  -0.000174   0.000937 -28.625300  -0.883490   1.617940 -38.019700  -0.000464  -0.002308 -25.321100  -0.001837  -0.000331 -32.427900  -0.988735   1.555830 -48.662200  -0.002063  -0.002266 -32.409100  -0.000181  -0.002691   8.944870  -5.486770   5.489040  38.410500 -21.772400  12.756300 -42.966600 -29.269600  47.575800 -54.546100 -25.006900   2.004180 -33.552600  26.059600  63.907500  33.249500  -0.000075  -0.000287  11.624700  -0.013080   0.004261  41.835500   9.035490   9.972940  34.882700  -0.012252  -0.009282  24.949000  -0.014194  -0.003936  28.366700   3.575620   6.666000  36.902300  -0.013761  -0.031651  24.576900  -0.017321  -0.015080  28.148600   3.382450   6.390900  34.419200  -0.005751  -0.036886  22.923200  -0.015426  -0.020067  39.159900  -0.851022  -1.022720  58.757000  -0.014520  -0.009215  39.132100  -0.011346   0.001461   4.632190  18.133800   5.589040   1.527460   0.108417  11.315800  -3.700420  -4.361990   3.868780   0.000000   0.000000  -0.000000   4.175850  15.173600  -5.801050   0.193634   1.117520  -6.788970  -1.358940  -4.100950   8.836540  -0.000000   0.000000   0.000000
 -1.049840  89.438900   2.298240  -6.263250 -12.695600 -12.296100   1.606770   9.050960  -0.868596   3.419530  18.072300  -2.036460   4.088180  -0.621491   0.044443   6.718190  -1.240710  10.501700  -5.951610  -1.185100  -1.072160 -68.085100  22.129700  -6.986600  -2.955640  -9.030680 -22.290100  15.939900 -15.467700   9.862530  41.184500  37.324200 -62.501300 -33.875000  -0.001029   0.000279 -11.937500  -0.002453   0.003762 -32.406600   5.018730  -7.846740 -26.796300  -0.001540   0.000882 -18.756700  -0.001494  -0.000098 -28.746400  -0.914068   1.665400 -40.731600  -0.004108  -0.001134 -27.127300  -0.000092   0.000799 -28.624000  -0.910470   1.667360 -38.018600  -0.000685  -0.002394 -25.320400  -0.001810  -0.000742 -32.423400  -1.018830   1.603420 -48.657100  -0.002197  -0.002668 -32.405600  -0.000193  -0.002884   9.042860  -5.347620   5.760290  38.307200 -20.012600  12.555000 -42.818100 -28.812100  47.993400 -51.840300 -24.963100   2.841380 -33.194600  25.787300  64.496200  33.173000  -0.004012  -0.002470  11.586400  -0.013468   0.004261  43.023600   8.802630   9.355460  35.801900  -0.007467  -0.005577  25.813800  -0.009243  -0.002292  28.532400   3.071590   5.760290  39.116100  -0.008390  -0.018922  26.051300  -0.010686  -0.008769  28.405400   2.735750   5.227980  36.675500  -0.004453  -0.022313  24.425800  -0.009196  -0.012122  40.439800  -1.271050  -1.484270  60.685900  -0.009503  -0.005523  40.416700  -0.007232   0.002835   4.621330  18.124500   5.582130   1.518600   0.053880  11.258600  -3.675230  -4.316890   3.789070   0.000000   0.000000   0.000000   4.168140  15.170800  -5.805240   0.179561   1.117390  -6.836800  -1.345270  -4.087370   8.736200  -0.000000   0.000000   0.000000
 -0.996753  89.444000   2.294630  -6.242270 -12.710000 -12.145300   1.580230   9.040770  -0.816062   3.356440  18.054100  -1.924620   4.017990  -0.668952   0.046979   6.603020  -1.335500  10.402900  -5.976130  -1.264090  -1.033760 -68.214500  22.010900  -6.903370  -2.880200  -8.884130 -22.394400  15.947700 -15.472300   9.860310  41.192900  37.347800 -62.507600 -33.881200  -0.000996   0.000488 -11.940600  -0.002537   0.003772 -32.401800   4.997180  -7.814970 -26.790100  -0.001599   0.000692 -18.753100  -0.001500  -0.000193 -28.745200  -0.935948   1.705310 -40.721200  -0.003807  -0.001056 -27.120300   0.000000   0.000666 -28.623000  -0.932266   1.707320 -38.012700  -0.000895  -0.002468 -25.316400  -0.001778  -0.001138 -32.415600  -1.043040   1.641950 -48.646100  -0.002337  -0.003086 -32.398200  -0.000208  -0.003071   9.146180  -5.188710   6.040270  38.180100 -18.189700  12.341500 -42.537200 -28.242700  48.411900 -48.785200 -24.917100   3.809940 -32.912900  25.651200  65.208800  33.096400  -0.011026  -0.006709  11.548200  -0.013688   0.004259  43.980500   8.499780   8.779440  36.532600  -0.002906  -0.002152  26.504600  -0.004128  -0.000852  28.641900   2.497590   4.772210  40.847300  -0.003310  -0.006323  27.204300  -0.003894  -0.002725  28.568500   1.967410   3.901740  38.439600  -0.003155  -0.006832  25.600700  -0.003178  -0.003528  41.442500  -1.516640  -1.728910  62.197700  -0.004378  -0.002053  41.423600  -0.003094   0.004363   4.611020  18.115300   5.572480   1.516510   0.001436  11.208300  -3.646370  -4.286790   3.705190  -0.000000   0.000000  -0.000000   4.163640  15.170200  -5.814200   0.163258   1.117290  -6.879530  -1.330350  -4.076190   8.637010   0.000000   0.000000   0.000000
 -0.944808  89.448900   2.295510  -6.224070 -12.732500 -11.991400   1.546720   9.022850  -0.749078   3.276600  18.020900  -1.781880   3.948910  -0.718002   0.049581   6.489730  -1.434220  10.257500  -5.978970  -1.289740  -1.042940 -68.338400  21.895300  -6.824710  -2.813590  -8.768260 -22.482900  15.954000 -15.450400   9.850710  41.194900  37.362800 -62.488000 -33.890300  -0.000958   0.000702 -11.945100  -0.002620   0.003760 -32.393000   4.975390  -7.784010 -26.780600  -0.001657   0.000497 -18.746500  -0.001502  -0.000284 -28.743900  -0.958030   1.745610 -40.700600  -0.003500  -0.000970 -27.106600   0.000134   0.000538 -28.622000  -0.954256   1.747670 -38.000200  -0.001090  -0.002530 -25.308100  -0.001744  -0.001510 -32.406500  -1.067420   1.680870 -48.633500  -0.002484  -0.003509 -32.389800  -0.000224  -0.003254   9.268040  -5.039720   6.226940  38.097000 -16.202600  12.179500 -42.217100 -27.518700  48.835800 -45.564100 -24.814800   4.946640 -32.422500  25.575700  66.077600  33.113800  -0.019397  -0.012746  11.556900  -0.013593   0.004252  44.599700   8.092950   8.230210  37.003100  -0.000066   0.001369  26.952100   0.001835   0.000502  28.714300   1.819620   3.603370  41.931500  -0.001382   0.006363  27.926400   0.001792   0.003846  28.674500   1.042760   2.301780  39.563500  -0.003327   0.009541  26.349300   0.001061   0.006430  42.118000  -1.524750  -1.622790  63.224600   0.000244   0.003487  42.107500   0.001815   0.005789   4.604610  18.066300   5.551100   1.513990   0.055969  11.163800  -3.618070  -4.310870   3.618590  -0.000000   0.000000   0.000000   4.157260  15.177800  -5.828740   0.151007   1.120010  -6.920900  -1.312860  -4.066460   8.533520   0.000000   0.000000   0.000000
